<mxfile host="app.diagrams.net" agent="Mozilla/5.0 (Macintosh; Intel Mac OS X 10_15_7) AppleWebKit/537.36 (KHTML, like Gecko) Chrome/130.0.0.0 Safari/537.36" version="24.8.2">
  <diagram id="C5RBs43oDa-KdzZeNtuy" name="Page-1">
    <mxGraphModel dx="1764" dy="927" grid="1" gridSize="10" guides="1" tooltips="1" connect="1" arrows="1" fold="1" page="1" pageScale="1" pageWidth="827" pageHeight="1169" math="0" shadow="0">
      <root>
        <mxCell id="WIyWlLk6GJQsqaUBKTNV-0" />
        <mxCell id="WIyWlLk6GJQsqaUBKTNV-1" parent="WIyWlLk6GJQsqaUBKTNV-0" />
        <mxCell id="5u8Rp34m-xznxXsKqo75-12" style="edgeStyle=orthogonalEdgeStyle;rounded=0;orthogonalLoop=1;jettySize=auto;html=1;" edge="1" parent="WIyWlLk6GJQsqaUBKTNV-1" source="WIyWlLk6GJQsqaUBKTNV-3" target="5u8Rp34m-xznxXsKqo75-4">
          <mxGeometry relative="1" as="geometry" />
        </mxCell>
        <mxCell id="WIyWlLk6GJQsqaUBKTNV-3" value="start" style="rounded=1;whiteSpace=wrap;html=1;fontSize=12;glass=0;strokeWidth=1;shadow=0;" parent="WIyWlLk6GJQsqaUBKTNV-1" vertex="1">
          <mxGeometry x="242.5" y="10" width="120" height="40" as="geometry" />
        </mxCell>
        <mxCell id="WIyWlLk6GJQsqaUBKTNV-11" value="End" style="rounded=1;whiteSpace=wrap;html=1;fontSize=12;glass=0;strokeWidth=1;shadow=0;" parent="WIyWlLk6GJQsqaUBKTNV-1" vertex="1">
          <mxGeometry x="242.5" y="850" width="120" height="40" as="geometry" />
        </mxCell>
        <mxCell id="5u8Rp34m-xznxXsKqo75-15" style="edgeStyle=orthogonalEdgeStyle;rounded=0;orthogonalLoop=1;jettySize=auto;html=1;" edge="1" parent="WIyWlLk6GJQsqaUBKTNV-1" source="5u8Rp34m-xznxXsKqo75-0" target="5u8Rp34m-xznxXsKqo75-7">
          <mxGeometry relative="1" as="geometry" />
        </mxCell>
        <mxCell id="5u8Rp34m-xznxXsKqo75-0" value="Display hardware specification and status of all machine in the network" style="rounded=0;whiteSpace=wrap;html=1;verticalAlign=middle;align=center;fontSize=12;fontColor=#7EA6E0;" vertex="1" parent="WIyWlLk6GJQsqaUBKTNV-1">
          <mxGeometry x="227.5" y="230" width="150" height="70" as="geometry" />
        </mxCell>
        <mxCell id="5u8Rp34m-xznxXsKqo75-1" value="In the header node" style="text;html=1;align=left;verticalAlign=middle;whiteSpace=wrap;rounded=0;fontColor=#7EA6E0;" vertex="1" parent="WIyWlLk6GJQsqaUBKTNV-1">
          <mxGeometry x="80" y="161.25" width="110" height="25" as="geometry" />
        </mxCell>
        <mxCell id="5u8Rp34m-xznxXsKqo75-13" style="edgeStyle=orthogonalEdgeStyle;rounded=0;orthogonalLoop=1;jettySize=auto;html=1;" edge="1" parent="WIyWlLk6GJQsqaUBKTNV-1" source="5u8Rp34m-xznxXsKqo75-4" target="5u8Rp34m-xznxXsKqo75-6">
          <mxGeometry relative="1" as="geometry" />
        </mxCell>
        <mxCell id="5u8Rp34m-xznxXsKqo75-4" value="&lt;font color=&quot;#7ea6e0&quot;&gt;Get the hash value&lt;/font&gt;" style="shape=parallelogram;perimeter=parallelogramPerimeter;whiteSpace=wrap;html=1;fixedSize=1;" vertex="1" parent="WIyWlLk6GJQsqaUBKTNV-1">
          <mxGeometry x="227.5" y="80" width="150" height="40" as="geometry" />
        </mxCell>
        <mxCell id="5u8Rp34m-xznxXsKqo75-14" style="edgeStyle=orthogonalEdgeStyle;rounded=0;orthogonalLoop=1;jettySize=auto;html=1;entryX=0.5;entryY=0;entryDx=0;entryDy=0;" edge="1" parent="WIyWlLk6GJQsqaUBKTNV-1" source="5u8Rp34m-xznxXsKqo75-6" target="5u8Rp34m-xznxXsKqo75-0">
          <mxGeometry relative="1" as="geometry" />
        </mxCell>
        <mxCell id="5u8Rp34m-xznxXsKqo75-6" value="Chunking all possible passwords 7 letters a-z" style="rounded=0;whiteSpace=wrap;html=1;fontColor=#7EA6E0;" vertex="1" parent="WIyWlLk6GJQsqaUBKTNV-1">
          <mxGeometry x="227.5" y="145" width="150" height="57.5" as="geometry" />
        </mxCell>
        <mxCell id="5u8Rp34m-xznxXsKqo75-20" style="edgeStyle=orthogonalEdgeStyle;rounded=0;orthogonalLoop=1;jettySize=auto;html=1;entryX=0.5;entryY=0;entryDx=0;entryDy=0;" edge="1" parent="WIyWlLk6GJQsqaUBKTNV-1" source="5u8Rp34m-xznxXsKqo75-7" target="5u8Rp34m-xznxXsKqo75-19">
          <mxGeometry relative="1" as="geometry" />
        </mxCell>
        <mxCell id="5u8Rp34m-xznxXsKqo75-7" value="Send the start signal and target hash to all machines" style="rounded=0;whiteSpace=wrap;html=1;fontColor=#7EA6E0;" vertex="1" parent="WIyWlLk6GJQsqaUBKTNV-1">
          <mxGeometry x="227.5" y="330" width="150" height="60" as="geometry" />
        </mxCell>
        <mxCell id="5u8Rp34m-xznxXsKqo75-8" value="In worker nodes" style="text;html=1;align=left;verticalAlign=middle;whiteSpace=wrap;rounded=0;fontColor=#4D9900;" vertex="1" parent="WIyWlLk6GJQsqaUBKTNV-1">
          <mxGeometry x="440" y="480" width="110" height="25" as="geometry" />
        </mxCell>
        <mxCell id="5u8Rp34m-xznxXsKqo75-17" style="edgeStyle=orthogonalEdgeStyle;rounded=0;orthogonalLoop=1;jettySize=auto;html=1;" edge="1" parent="WIyWlLk6GJQsqaUBKTNV-1" source="5u8Rp34m-xznxXsKqo75-9" target="5u8Rp34m-xznxXsKqo75-10">
          <mxGeometry relative="1" as="geometry" />
        </mxCell>
        <mxCell id="5u8Rp34m-xznxXsKqo75-23" value="Yes" style="edgeLabel;html=1;align=center;verticalAlign=middle;resizable=0;points=[];" vertex="1" connectable="0" parent="5u8Rp34m-xznxXsKqo75-17">
          <mxGeometry x="0.0156" y="1" relative="1" as="geometry">
            <mxPoint as="offset" />
          </mxGeometry>
        </mxCell>
        <mxCell id="5u8Rp34m-xznxXsKqo75-9" value="All chunks were&lt;div&gt;Calculated&lt;/div&gt;" style="rhombus;whiteSpace=wrap;html=1;" vertex="1" parent="WIyWlLk6GJQsqaUBKTNV-1">
          <mxGeometry x="225" y="520" width="155" height="80" as="geometry" />
        </mxCell>
        <mxCell id="5u8Rp34m-xznxXsKqo75-37" style="edgeStyle=orthogonalEdgeStyle;rounded=0;orthogonalLoop=1;jettySize=auto;html=1;entryX=0.5;entryY=0;entryDx=0;entryDy=0;" edge="1" parent="WIyWlLk6GJQsqaUBKTNV-1" source="5u8Rp34m-xznxXsKqo75-10" target="5u8Rp34m-xznxXsKqo75-11">
          <mxGeometry relative="1" as="geometry" />
        </mxCell>
        <mxCell id="5u8Rp34m-xznxXsKqo75-10" value="&lt;font color=&quot;#7ea6e0&quot;&gt;Send end signal to all machines&lt;/font&gt;" style="rounded=0;whiteSpace=wrap;html=1;" vertex="1" parent="WIyWlLk6GJQsqaUBKTNV-1">
          <mxGeometry x="227.5" y="645" width="150" height="60" as="geometry" />
        </mxCell>
        <mxCell id="5u8Rp34m-xznxXsKqo75-38" style="edgeStyle=orthogonalEdgeStyle;rounded=0;orthogonalLoop=1;jettySize=auto;html=1;entryX=0.5;entryY=0;entryDx=0;entryDy=0;" edge="1" parent="WIyWlLk6GJQsqaUBKTNV-1" source="5u8Rp34m-xznxXsKqo75-11" target="WIyWlLk6GJQsqaUBKTNV-11">
          <mxGeometry relative="1" as="geometry" />
        </mxCell>
        <mxCell id="5u8Rp34m-xznxXsKqo75-11" value="&lt;font color=&quot;#7ea6e0&quot;&gt;Display the result&lt;/font&gt;" style="rounded=0;whiteSpace=wrap;html=1;" vertex="1" parent="WIyWlLk6GJQsqaUBKTNV-1">
          <mxGeometry x="227.5" y="750" width="150" height="60" as="geometry" />
        </mxCell>
        <mxCell id="5u8Rp34m-xznxXsKqo75-21" style="edgeStyle=orthogonalEdgeStyle;rounded=0;orthogonalLoop=1;jettySize=auto;html=1;entryX=0.5;entryY=0;entryDx=0;entryDy=0;" edge="1" parent="WIyWlLk6GJQsqaUBKTNV-1" source="5u8Rp34m-xznxXsKqo75-19" target="5u8Rp34m-xznxXsKqo75-9">
          <mxGeometry relative="1" as="geometry" />
        </mxCell>
        <mxCell id="5u8Rp34m-xznxXsKqo75-19" value="Send the request to get a chunk of passwords" style="rounded=0;whiteSpace=wrap;html=1;fontColor=#4D9900;" vertex="1" parent="WIyWlLk6GJQsqaUBKTNV-1">
          <mxGeometry x="227.5" y="420" width="150" height="60" as="geometry" />
        </mxCell>
        <mxCell id="5u8Rp34m-xznxXsKqo75-22" value="" style="rounded=0;whiteSpace=wrap;html=1;" vertex="1" parent="WIyWlLk6GJQsqaUBKTNV-1">
          <mxGeometry x="460" y="635" width="150" height="60" as="geometry" />
        </mxCell>
        <mxCell id="5u8Rp34m-xznxXsKqo75-24" value="" style="rounded=0;whiteSpace=wrap;html=1;" vertex="1" parent="WIyWlLk6GJQsqaUBKTNV-1">
          <mxGeometry x="470" y="645" width="150" height="60" as="geometry" />
        </mxCell>
        <mxCell id="5u8Rp34m-xznxXsKqo75-33" style="edgeStyle=orthogonalEdgeStyle;rounded=0;orthogonalLoop=1;jettySize=auto;html=1;entryX=0.5;entryY=0;entryDx=0;entryDy=0;" edge="1" parent="WIyWlLk6GJQsqaUBKTNV-1" source="5u8Rp34m-xznxXsKqo75-25" target="5u8Rp34m-xznxXsKqo75-29">
          <mxGeometry relative="1" as="geometry" />
        </mxCell>
        <mxCell id="5u8Rp34m-xznxXsKqo75-25" value="&lt;font color=&quot;#4d9900&quot;&gt;Calculate sha-512 on the target passwords&lt;/font&gt;" style="rounded=0;whiteSpace=wrap;html=1;" vertex="1" parent="WIyWlLk6GJQsqaUBKTNV-1">
          <mxGeometry x="480" y="655" width="150" height="60" as="geometry" />
        </mxCell>
        <mxCell id="5u8Rp34m-xznxXsKqo75-26" style="edgeStyle=orthogonalEdgeStyle;rounded=0;orthogonalLoop=1;jettySize=auto;html=1;entryX=0.572;entryY=0.087;entryDx=0;entryDy=0;entryPerimeter=0;" edge="1" parent="WIyWlLk6GJQsqaUBKTNV-1" source="5u8Rp34m-xznxXsKqo75-9" target="5u8Rp34m-xznxXsKqo75-22">
          <mxGeometry relative="1" as="geometry" />
        </mxCell>
        <mxCell id="5u8Rp34m-xznxXsKqo75-27" value="No" style="edgeLabel;html=1;align=center;verticalAlign=middle;resizable=0;points=[];" vertex="1" connectable="0" parent="5u8Rp34m-xznxXsKqo75-26">
          <mxGeometry x="-0.6553" y="2" relative="1" as="geometry">
            <mxPoint x="19" y="2" as="offset" />
          </mxGeometry>
        </mxCell>
        <mxCell id="5u8Rp34m-xznxXsKqo75-30" style="edgeStyle=orthogonalEdgeStyle;rounded=0;orthogonalLoop=1;jettySize=auto;html=1;exitX=0;exitY=0.5;exitDx=0;exitDy=0;" edge="1" parent="WIyWlLk6GJQsqaUBKTNV-1" source="5u8Rp34m-xznxXsKqo75-29">
          <mxGeometry relative="1" as="geometry">
            <mxPoint x="300" y="610" as="targetPoint" />
            <Array as="points">
              <mxPoint x="430" y="850" />
              <mxPoint x="430" y="610" />
            </Array>
          </mxGeometry>
        </mxCell>
        <mxCell id="5u8Rp34m-xznxXsKqo75-31" value="Yes" style="edgeLabel;html=1;align=center;verticalAlign=middle;resizable=0;points=[];" vertex="1" connectable="0" parent="5u8Rp34m-xznxXsKqo75-30">
          <mxGeometry x="-0.4628" y="1" relative="1" as="geometry">
            <mxPoint as="offset" />
          </mxGeometry>
        </mxCell>
        <mxCell id="5u8Rp34m-xznxXsKqo75-34" style="edgeStyle=orthogonalEdgeStyle;rounded=0;orthogonalLoop=1;jettySize=auto;html=1;entryX=1;entryY=0.5;entryDx=0;entryDy=0;" edge="1" parent="WIyWlLk6GJQsqaUBKTNV-1" source="5u8Rp34m-xznxXsKqo75-29" target="5u8Rp34m-xznxXsKqo75-19">
          <mxGeometry relative="1" as="geometry">
            <Array as="points">
              <mxPoint x="720" y="850" />
              <mxPoint x="720" y="450" />
            </Array>
          </mxGeometry>
        </mxCell>
        <mxCell id="5u8Rp34m-xznxXsKqo75-35" value="No" style="edgeLabel;html=1;align=center;verticalAlign=middle;resizable=0;points=[];" vertex="1" connectable="0" parent="5u8Rp34m-xznxXsKqo75-34">
          <mxGeometry x="-0.6427" y="-1" relative="1" as="geometry">
            <mxPoint y="1" as="offset" />
          </mxGeometry>
        </mxCell>
        <mxCell id="5u8Rp34m-xznxXsKqo75-29" value="Found the password" style="rhombus;whiteSpace=wrap;html=1;" vertex="1" parent="WIyWlLk6GJQsqaUBKTNV-1">
          <mxGeometry x="477.5" y="810" width="155" height="80" as="geometry" />
        </mxCell>
        <mxCell id="5u8Rp34m-xznxXsKqo75-32" value="&lt;font color=&quot;#4d9900&quot;&gt;Keep repeating show the throughput and check the end signal&lt;/font&gt;" style="text;html=1;align=center;verticalAlign=middle;whiteSpace=wrap;rounded=0;" vertex="1" parent="WIyWlLk6GJQsqaUBKTNV-1">
          <mxGeometry x="580" y="730" width="120" height="40" as="geometry" />
        </mxCell>
      </root>
    </mxGraphModel>
  </diagram>
</mxfile>
